<svg width="32" height="32">
  <g transform="translate(0 -1020.362)">
    <circle cx="16" cy="1036.362" r="16" fill="#fffb10" fill-rule="evenodd" />
    <path fill="#070703"
      d="M16.91 31.967a16 16 0 0 0 .22-.008 16 16 0 0 0 1.589-.191 16 16 0 0 0 1.56-.352 16 16 0 0 0 1.518-.504 16 16 0 0 0 1.46-.652 16 16 0 0 0 1.388-.797 16 16 0 0 0 1.3-.93 16 16 0 0 0 1.201-1.054 16 16 0 0 0 1.092-1.172 16 16 0 0 0 .967-1.272 16 16 0 0 0 .836-1.365 16 16 0 0 0 .695-1.44 16 16 0 0 0 .55-1.501 16 16 0 0 0 .396-1.551 16 16 0 0 0 .238-1.58 16 16 0 0 0 .049-.979l-7.125-7.125a.243.243 0 0 0-.11-.064l-9.638-2.56c-.024-.01-.047-.01-.07-.01h-.003a.237.237 0 0 0-.224.18l-.455 1.708a.232.232 0 0 0 0 .12c.003.014.011.025.017.038a.24.24 0 0 0 .04.065c.002.003.002.008.005.011l.483.483h-4.705a.242.242 0 0 0-.243.242v15.19c0 .066.027.127.07.171l6.9 6.899z"
      color="#000" font-family="sans-serif" font-weight="400"
      style="line-height:normal;text-indent:0;text-align:start;text-decoration-line:none;text-decoration-style:solid;text-decoration-color:#000;text-transform:none;block-progression:tb;isolation:auto;mix-blend-mode:normal"
      transform="translate(0 1020.362)" />
    <path fill="#fff"
      d="M15.024 1027.222a.238.238 0 0 0-.225.18l-.455 1.707a.243.243 0 0 0 .235.307h6.185c.038 0 .062.026.061.063a.22.22 0 0 0 .005.053v13.785c.001.282.403.336.478.063l3.6-13.29a.243.243 0 0 0-.173-.298l-9.64-2.561c-.022-.01-.047-.01-.07-.01zm-4.84 2.605a.243.243 0 0 0-.243.243v15.19c0 .133.11.242.243.242H20.19a.243.243 0 0 0 .243-.243v-15.19a.243.243 0 0 0-.243-.242H10.184zm1.343 1.036c.183 0 .305.122.305.305 0 .047-.01.09-.025.129a.282.282 0 0 1 .268.298c0 .183-.122.305-.305.305a.293.293 0 0 1-.232-.103c.03.19.057.38.147.47h-.367c.092-.093.118-.293.15-.49a.287.287 0 0 1-.246.123c-.183 0-.305-.122-.305-.305s.122-.305.305-.305c.015 0 .027.01.04.01a.286.286 0 0 1-.04-.129c0-.122.122-.305.305-.305zm3.66 4.454h.03c.571 0 1.068.547 1.068 1.155 0 .072-.007.144-.02.212.325.017.873.474.873 1.131 0 .61-.488 1.097-1.098 1.097-.293 0-.551-.12-.747-.306.093.572.15 1.128.382 1.405h-1.037c.271-.271.341-.845.434-1.396a1.08 1.08 0 0 1-.739.297c-.61 0-1.097-.487-1.097-1.097 0-.535.36-1.021.874-1.133a1.201 1.201 0 0 1-.02-.21c0-.61.467-1.158 1.097-1.158zm3.445 7.807h.366c-.095.095-.12.3-.153.5a.28.28 0 0 1 .245-.134c.183 0 .305.122.305.305 0 .17-.107.283-.268.3a.34.34 0 0 1 .025.128c0 .183-.122.305-.305.305s-.305-.122-.305-.305c0-.046.008-.09.023-.127h-.023c-.183 0-.305-.122-.305-.305s.122-.305.305-.305a.28.28 0 0 1 .242.131c-.034-.217-.056-.449-.152-.496z"
      color="#000" font-family="sans-serif" font-weight="400" overflow="visible"
      style="line-height:normal;text-indent:0;text-align:start;text-decoration-line:none;text-decoration-style:solid;text-decoration-color:#000;text-transform:none;block-progression:tb;isolation:auto;mix-blend-mode:normal" />
  </g>
</svg>